<svg xmlns="http://www.w3.org/2000/svg" fill="none" viewBox="0 0 116 146" height="146" width="116">
<path fill="#00A0AF" d="M40.5454 109.095C36.3804 109.605 33.4064 113.408 33.9164 117.574C34.4024 121.538 37.9024 124.47 41.8874 124.247C42.0574 124.239 42.2264 124.224 42.3944 124.202C42.6534 124.172 42.9154 124.126 43.1714 124.068L43.5024 123.992L43.2944 122.291L42.8864 122.392C42.6544 122.446 42.4194 122.493 42.1904 122.519C38.9384 122.915 35.9964 120.579 35.6024 117.369C35.2064 114.133 37.5174 111.179 40.7524 110.78C40.9894 110.753 41.2264 110.738 41.4594 110.738L41.8804 110.735L41.6734 109.035L41.3344 109.041C41.0724 109.044 40.8104 109.063 40.5454 109.095Z"></path>
<path fill="#00A0AF" d="M43.8294 125.908L43.3784 126.003C43.1344 126.053 42.8804 126.095 42.6244 126.127C42.4144 126.151 42.2024 126.172 41.9924 126.184C37.0174 126.46 32.6474 122.798 32.0404 117.849C31.4044 112.65 35.1184 107.903 40.3164 107.265C40.5294 107.242 40.7444 107.223 40.9584 107.209L41.5384 107.183L41.2524 104.848L40.8174 104.87C40.5534 104.884 40.2904 104.905 40.0334 104.939C33.5514 105.731 28.9234 111.65 29.7164 118.132C30.4704 124.305 35.9204 128.866 42.1224 128.521C42.1224 128.523 42.1224 128.521 42.1224 128.521C42.3834 128.506 42.6484 128.483 42.9104 128.452C43.1774 128.42 43.4524 128.375 43.7294 128.322L44.1174 128.249L43.8294 125.908Z"></path>
<path fill="#00A0AF" d="M75.6849 124.533C79.8621 124.135 82.9372 120.414 82.5393 116.236C82.1601 112.26 78.7401 109.235 74.7506 109.351C74.5804 109.354 74.4111 109.365 74.2425 109.382C73.9828 109.405 73.7197 109.444 73.4622 109.495L73.1293 109.562L73.2915 111.268L73.7021 111.178C73.9354 111.13 74.1716 111.09 74.4012 111.07C77.6627 110.761 80.5409 113.176 80.8484 116.395C81.1573 119.641 78.7678 122.531 75.5232 122.843C75.2856 122.864 75.0483 122.873 74.8154 122.866L74.3944 122.858L74.5557 124.563L74.8947 124.566C75.1567 124.57 75.4191 124.558 75.6849 124.533Z"></path>
<path fill="#00A0AF" d="M72.8539 107.638L73.3073 107.555C73.5525 107.512 73.8076 107.477 74.0643 107.452C74.2749 107.433 74.4874 107.418 74.6977 107.412C79.6783 107.269 83.9483 111.048 84.422 116.011C84.9181 121.225 81.0779 125.871 75.8646 126.369C75.651 126.386 75.4356 126.399 75.2213 126.408L74.6408 126.418L74.864 128.76L75.2994 128.749C75.5637 128.743 75.8272 128.729 76.085 128.702C82.5859 128.084 87.3713 122.292 86.7528 115.791C86.165 109.6 80.8395 104.894 74.6305 105.072C74.6306 105.07 74.6305 105.072 74.6305 105.072C74.3692 105.08 74.1037 105.096 73.8409 105.12C73.5732 105.145 73.2971 105.182 73.0187 105.228L72.6289 105.29L72.8539 107.638Z"></path>
<path fill="black" d="M50.9082 118.877H52.6924V128H50.9082V118.877ZM47.1992 124.423C47.1992 125.062 47.3604 125.557 47.6826 125.908C48.0107 126.254 48.4707 126.427 49.0625 126.427C49.6484 126.427 50.1025 126.271 50.4248 125.961C50.7471 125.65 50.9082 125.208 50.9082 124.634L51.0312 126.541C50.8438 126.992 50.5391 127.37 50.1172 127.675C49.6953 127.979 49.1768 128.132 48.5615 128.132C47.5537 128.132 46.7744 127.81 46.2236 127.165C45.6787 126.515 45.4062 125.601 45.4062 124.423V118.877H47.1992V124.423ZM55.4258 118.877H57.2188V128H55.4258V118.877ZM60.4443 121.039C60.2861 120.846 60.0869 120.699 59.8467 120.6C59.6064 120.5 59.3281 120.45 59.0117 120.45C58.4434 120.45 58.001 120.608 57.6846 120.925C57.374 121.235 57.2188 121.669 57.2188 122.226L57.0342 120.468C57.3154 119.923 57.6787 119.501 58.124 119.202C58.5693 118.897 59.0615 118.745 59.6006 118.745C60.0166 118.745 60.3916 118.807 60.7256 118.93C61.0654 119.047 61.3613 119.223 61.6133 119.457L60.4443 121.039ZM66.667 128.132C65.8232 128.132 65.1025 127.974 64.5049 127.657C63.9072 127.341 63.4502 126.878 63.1338 126.269C62.8232 125.653 62.668 124.912 62.668 124.045V123.017C62.668 122.114 62.8174 121.344 63.1162 120.705C63.4209 120.066 63.8604 119.58 64.4346 119.246C65.0088 118.912 65.7002 118.745 66.5088 118.745C67.2705 118.745 67.9209 118.936 68.46 119.316C68.999 119.697 69.4092 120.248 69.6904 120.969C69.9775 121.689 70.1211 122.554 70.1211 123.562V124.159H63.9688V122.718H68.416C68.3633 121.974 68.1699 121.396 67.8359 120.986C67.5078 120.57 67.0654 120.362 66.5088 120.362C65.8291 120.362 65.3018 120.585 64.9268 121.03C64.5576 121.476 64.373 122.105 64.373 122.92V124.08C64.373 124.836 64.5723 125.416 64.9707 125.82C65.3691 126.225 65.9346 126.427 66.667 126.427C67.0303 126.427 67.3906 126.354 67.748 126.207C68.1055 126.061 68.4248 125.855 68.7061 125.592L69.8838 126.77C69.4326 127.203 68.9258 127.54 68.3633 127.78C67.8008 128.015 67.2354 128.132 66.667 128.132Z"></path>
<path fill="#262425" d="M0 47.937C0 41.037 3.545 34.919 9.005 31.13C10.102 20.597 19.487 12.369 30.902 12.369C31.255 12.369 31.603 12.378 31.952 12.393C34.718 9.58 38.296 7.493 42.333 6.466C44.204 5.989 46.133 5.752 48.061 5.752C50.954 5.752 53.715 6.281 56.244 7.241C56.38 7.189 56.515 7.139 56.651 7.091C56.656 7.088 56.662 7.086 56.669 7.085C56.806 7.036 56.944 6.988 57.083 6.94C59.38 6.171 61.853 5.752 64.428 5.752C66.24 5.752 68 5.96 69.685 6.352C71.662 5.485 73.864 5 76.184 5C82.147 5 87.32 8.19 89.91 12.862C95.072 13.248 99.423 16.349 101.376 20.656C106.706 21.852 110.9 26.519 110.9 32.069C110.9 32.602 110.862 33.126 110.79 33.638C112.782 35.571 114.221 38.055 114.84 40.769C115.459 43.472 115.249 46.343 114.245 48.929C113.691 50.355 112.903 51.688 111.931 52.87C111.233 53.74 110.252 54.349 109.555 55.184C107.92 56.462 106.004 57.428 103.909 57.987C103.879 65.024 97.845 70.718 90.405 70.718C90.332 70.718 90.26 70.718 90.188 70.715C88.295 72.57 85.639 73.725 82.7 73.725C79.294 73.725 76.271 72.175 74.372 69.783C70.944 77.068 63.229 82.146 54.26 82.146C50.578 82.146 47.108 81.292 44.06 79.779C41.119 84.27 35.865 87.259 29.872 87.259C24.414 87.259 19.566 84.78 16.524 80.941C7.911 80.861 0.95401 74.227 0.95401 66.056C0.95401 63.328 1.729 60.77 3.084 58.572C1.124 55.461 0 51.824 0 47.937Z"></path>
<path fill="#00A0AF" d="M62.343 71.17C61.74 69.746 60.879 68.472 59.785 67.376C58.688 66.28 57.412 65.42 55.991 64.817C54.518 64.194 52.953 63.878 51.345 63.878H20.641C15.724 63.878 11.723 59.879 11.723 54.961V51.233H8.70398V54.961C8.70398 56.571 9.01797 58.135 9.64297 59.608C10.244 61.03 11.104 62.306 12.2 63.405C13.295 64.499 14.572 65.358 15.992 65.961C17.465 66.581 19.028 66.9 20.64 66.9H51.344C56.261 66.9 60.261 70.9 60.261 75.814V115.348H63.281V75.815C63.282 74.205 62.966 72.642 62.343 71.17Z"></path>
<path fill="#95A43A" d="M57.438 47.269C56.836 45.85 55.976 44.572 54.881 43.479C53.784 42.38 52.507 41.522 51.088 40.918C49.613 40.296 48.051 39.98 46.44 39.98H36.795V43.001H46.44C51.357 43.001 55.357 46.999 55.357 51.917V115.348H58.378V51.916C58.378 50.306 58.06 48.742 57.438 47.269Z"></path>
<path fill="#F7941E" d="M80.578 28.233V70.447C80.578 75.365 76.578 79.364 71.661 79.364H62.431C60.82 79.364 59.256 79.68 57.783 80.301C56.363 80.904 55.086 81.765 53.99 82.861C52.893 83.958 52.034 85.232 51.433 86.656C50.809 88.127 50.495 89.69 50.495 91.303V115.348H53.514V91.302C53.514 86.383 57.514 82.383 62.432 82.383H71.662C73.273 82.383 74.837 82.067 76.308 81.444C77.73 80.841 79.006 79.982 80.102 78.888C81.198 77.79 82.058 76.515 82.659 75.095C83.283 73.62 83.598 72.056 83.598 70.447V28.233H80.578Z"></path>
<path fill="#FEBC11" d="M27.035 44.341V66.463C27.035 71.38 31.036 75.379 35.952 75.379H36.745C38.356 75.379 39.919 75.696 41.391 76.319C42.813 76.919 44.088 77.779 45.185 78.876C46.281 79.972 47.142 81.248 47.743 82.669C48.366 84.144 48.681 85.704 48.681 87.316V115.348H45.662V87.317C45.662 82.4 41.661 78.397 36.745 78.397L35.952 78.401C34.342 78.401 32.778 78.086 31.305 77.462C29.885 76.86 28.608 75.999 27.513 74.905C26.417 73.808 25.555 72.532 24.955 71.111C24.332 69.636 24.016 68.074 24.016 66.464V44.342H27.035V44.341Z"></path>
<path fill="#F26522" d="M97.266 45.307V54.593C97.266 59.511 93.266 63.511 88.349 63.511L77.028 63.504C75.416 63.504 73.853 63.82 72.381 64.443C70.96 65.045 69.683 65.903 68.587 67.001C67.492 68.097 66.631 69.372 66.031 70.795C65.406 72.269 65.092 73.832 65.092 75.441V115.348H68.112V75.441C68.112 70.526 72.111 66.526 77.027 66.526L78.5 66.532H88.351C89.96 66.532 91.525 66.215 92.997 65.592C94.419 64.99 95.695 64.13 96.791 63.036C97.887 61.936 98.748 60.662 99.348 59.24C99.971 57.766 100.286 56.204 100.286 54.594V45.308H97.266V45.307Z"></path>
<path fill="#F7941E" d="M62.503 27.696C65.664 25.736 70.113 24.515 75.042 24.515C84.638 24.515 92.415 29.144 92.415 34.852C92.415 40.306 85.314 44.774 76.311 45.161C75.891 45.181 75.469 45.188 75.042 45.188C73.958 45.188 72.898 45.129 71.87 45.017C71.77 45.496 71.719 45.99 71.719 46.496C71.719 48.027 72.198 49.446 73.013 50.612C70.189 49.796 68.084 47.291 67.852 44.262C61.843 42.638 57.664 39.033 57.664 34.851C57.665 32.075 59.506 29.553 62.503 27.696Z"></path>
<path fill="#00ADBA" d="M56.807 22.343C56.774 20.898 56.45 19.437 55.804 18.043C55.764 17.957 55.724 17.874 55.684 17.791C56.176 17.447 56.661 17.09 57.14 16.722C56.717 15.916 56.204 15.158 55.616 14.464C55.09 14.762 54.574 15.072 54.067 15.396C52.999 14.201 51.692 13.274 50.25 12.653C50.408 12.079 50.55 11.497 50.681 10.91C49.832 10.572 48.947 10.319 48.041 10.166C47.829 10.731 47.63 11.295 47.45 11.866C45.903 11.644 44.294 11.746 42.726 12.212C42.476 11.673 42.207 11.141 41.927 10.615C41.052 10.896 40.21 11.273 39.413 11.732C39.612 12.295 39.826 12.85 40.054 13.402C38.656 14.256 37.502 15.382 36.633 16.675C36.09 16.428 35.539 16.193 34.982 15.97C34.489 16.744 34.079 17.569 33.765 18.428C34.285 18.726 34.81 19.011 35.342 19.285C34.837 20.773 34.649 22.367 34.82 23.956C34.24 24.114 33.663 24.288 33.088 24.473C33.209 25.376 33.43 26.265 33.742 27.12C34.336 27.015 34.929 26.895 35.514 26.763C35.592 26.958 35.676 27.154 35.766 27.345C36.359 28.624 37.172 29.734 38.14 30.647C37.795 31.139 37.459 31.637 37.136 32.145C37.815 32.755 38.561 33.292 39.355 33.742C39.747 33.283 40.126 32.814 40.492 32.339C41.888 33.083 43.44 33.522 45.036 33.618C45.084 34.21 45.15 34.803 45.229 35.395C46.147 35.426 47.071 35.361 47.977 35.195C47.981 34.596 47.973 33.997 47.947 33.404C48.77 33.232 49.587 32.966 50.382 32.596C51.064 32.279 51.698 31.903 52.282 31.476C52.706 31.894 53.138 32.304 53.584 32.704C54.314 32.144 54.982 31.5 55.573 30.798C55.191 30.341 54.796 29.893 54.391 29.455C55.391 28.203 56.103 26.757 56.487 25.225C57.084 25.272 57.685 25.309 58.287 25.329C58.487 24.439 58.587 23.526 58.591 22.613C57.997 22.508 57.403 22.417 56.807 22.343ZM49.122 29.85C45.086 31.724 40.299 29.97 38.425 25.936C36.553 21.903 38.305 17.115 42.34 15.241C46.374 13.368 51.162 15.12 53.036 19.154C54.91 23.19 53.157 27.975 49.122 29.85Z"></path>
<path fill="#00ADBA" d="M49.0066 21.1883C48.1968 19.4446 46.1098 18.6954 44.345 19.5149C42.5803 20.3344 41.8061 22.4123 42.6158 24.156C43.4256 25.8997 45.5126 26.6489 47.2774 25.8294C49.0421 25.0099 49.8163 22.932 49.0066 21.1883Z"></path>
<path fill="#FAA21B" d="M16.635 71.321L15.523 70.209L14.029 73.889L12.535 77.566L16.215 76.075L19.892 74.58L18.78 73.466L21.295 70.951L19.151 68.807L16.635 71.321Z"></path>
<path fill="#008FAF" d="M32.801 51.635C32.801 51.635 29.913 55.855 29.913 57.45C29.913 59.047 31.206 60.34 32.801 60.34C34.398 60.34 35.692 59.047 35.692 57.45C35.692 55.855 32.801 51.635 32.801 51.635Z"></path>
<path fill="#FEBC11" d="M106.435 46.042C106.454 45.496 106.414 44.952 106.317 44.416C105.96 44.415 105.603 44.422 105.246 44.439C105.051 43.487 104.65 42.618 104.099 41.876C104.349 41.622 104.595 41.362 104.835 41.097C104.498 40.667 104.117 40.274 103.698 39.926C103.424 40.155 103.155 40.39 102.893 40.632C102.158 40.052 101.297 39.628 100.365 39.405C100.397 39.05 100.416 38.692 100.428 38.336C99.895 38.223 99.35 38.166 98.805 38.169C98.741 38.521 98.688 38.875 98.643 39.229C98.517 39.232 98.39 39.242 98.264 39.251C97.423 39.325 96.631 39.558 95.918 39.913C95.713 39.622 95.499 39.335 95.28 39.054C94.798 39.308 94.343 39.619 93.929 39.971C94.105 40.282 94.292 40.586 94.485 40.885C93.782 41.515 93.218 42.291 92.839 43.162C92.495 43.069 92.147 42.986 91.797 42.911C91.591 43.418 91.441 43.945 91.348 44.484C91.684 44.606 92.023 44.72 92.364 44.827C92.293 45.318 92.276 45.828 92.322 46.345C92.362 46.787 92.445 47.218 92.565 47.629C92.243 47.78 91.924 47.939 91.608 48.109C91.774 48.627 92 49.128 92.275 49.597C92.612 49.476 92.944 49.346 93.273 49.209C93.773 50.018 94.444 50.703 95.23 51.224C95.079 51.548 94.938 51.876 94.803 52.206C95.264 52.496 95.758 52.734 96.271 52.921C96.452 52.612 96.623 52.298 96.787 51.982C97.609 52.253 98.498 52.365 99.417 52.286C99.472 52.28 99.526 52.273 99.581 52.268C99.675 52.611 99.777 52.954 99.887 53.294C100.427 53.219 100.959 53.084 101.472 52.896C101.41 52.545 101.34 52.194 101.262 51.847C102.154 51.491 102.942 50.949 103.586 50.269C103.879 50.474 104.177 50.668 104.481 50.859C104.847 50.454 105.169 50.012 105.439 49.538C105.164 49.309 104.886 49.083 104.602 48.868C105.042 48.049 105.312 47.133 105.372 46.165C105.725 46.134 106.081 46.093 106.435 46.042Z"></path>
<path fill="#F7941E" d="M41.215 57.804C43.902 60.455 48.229 60.425 50.88 57.736C53.53 55.051 53.501 50.723 50.814 48.073C48.126 45.422 43.799 45.452 41.147 48.139C38.497 50.826 38.527 55.152 41.215 57.804ZM42.138 57.09L43.042 56.28L44.803 54.705C45.141 54.936 45.529 55.059 45.923 55.077L46.386 57.395L46.624 58.583C45.036 58.756 43.39 58.258 42.138 57.09ZM50.058 56.926C49.358 57.637 48.517 58.123 47.625 58.386L47.386 57.197L46.923 54.88C47.146 54.774 47.355 54.629 47.539 54.442C47.675 54.305 47.788 54.155 47.879 53.994L50.154 54.638L51.321 54.965C51.05 55.678 50.629 56.348 50.058 56.926ZM51.598 53.985L50.43 53.656L48.156 53.013C48.167 52.642 48.085 52.266 47.906 51.928L49.667 50.354L50.57 49.543C51.538 50.841 51.882 52.459 51.598 53.985ZM49.891 48.785L48.986 49.595L47.226 51.17C46.888 50.939 46.499 50.816 46.106 50.797L45.643 48.481L45.406 47.293C46.991 47.119 48.639 47.617 49.891 48.785ZM41.969 48.95C42.67 48.238 43.511 47.754 44.403 47.49L44.642 48.68L45.105 50.995C44.88 51.102 44.671 51.247 44.487 51.433C44.353 51.572 44.239 51.723 44.149 51.881L41.874 51.241L40.706 50.91C40.978 50.198 41.399 49.528 41.969 48.95ZM41.598 52.222L43.873 52.862C43.861 53.236 43.944 53.61 44.123 53.947L42.361 55.523L41.458 56.333C40.489 55.035 40.146 53.417 40.43 51.893L41.598 52.222Z"></path>
<path fill="#F6891F" d="M73.637 55.756L68.609 56.794L69.631 58.379L65.712 60.903L67.68 63.956L71.597 61.434L72.617 63.019L75.643 58.869L78.668 54.719L73.637 55.756Z"></path>
<path fill="#F6891F" d="M62.9249 62.8058L64.8112 65.7312L66.8963 64.3868L65.0099 61.4613L62.9249 62.8058Z"></path>
<path fill="#AAD9B5" d="M29.245 44.691L32.018 42.604L34.105 45.376L33.279 45.997L32.253 44.636L31.836 47.59L30.812 47.445L31.23 44.491L29.867 45.516L29.245 44.691Z"></path>
<path fill="#AAD9B5" d="M32.994 41.382L32.333 41.023L33.37 39.111L32.178 39.465L31.963 38.742L34.388 38.022L35.108 40.45L34.386 40.661L34.032 39.469L32.994 41.382Z"></path>
<path fill="#F26522" d="M96.033 20.818H93.095V17.88H91.05V20.818H88.112V22.863H91.05V25.801H93.095V22.863H96.033V20.818Z"></path>
<path fill="#F5EB00" d="M14.753 43.62H11.624V40.493H9.44601V43.62H6.31702V45.8H9.44601V48.928H11.624V45.8H14.753V43.62Z"></path>
<path fill="#8DC63F" d="M81.255 14.712L82.905 12.664L76.526 10.843L70.145 9.019L73.286 14.863L76.425 20.709L78.076 18.66L82.706 22.39L85.886 18.444L81.255 14.712Z"></path>
<path fill="#4EA0B4" d="M62.295 15.614L64.07 16.81L60.487 22.122L61.086 22.527L64.67 17.214L66.446 18.412L66.622 15.915L66.795 13.418L62.295 15.614Z"></path>
<path fill="#00A0AF" d="M50.993 70.583C49.64 69.232 47.447 69.232 46.095 70.583C44.742 71.937 44.742 74.131 46.095 75.483C47.448 76.835 49.64 76.836 50.993 75.483C52.346 74.131 52.346 71.938 50.993 70.583ZM49.457 73.947C48.953 74.452 48.135 74.452 47.632 73.947C47.128 73.44 47.128 72.626 47.632 72.121C48.134 71.617 48.953 71.617 49.457 72.121C49.961 72.625 49.961 73.44 49.457 73.947Z"></path>
<path fill="#79AD36" d="M25.234 83.762L26.045 81.312L33.38 83.74L33.655 82.911L26.319 80.483L27.131 78.031L24.175 78.64L21.221 79.253L25.234 83.762Z"></path>
<path fill="#17AEB2" d="M62.925 54.83L63.742 54.787L63.595 52.032L66.45 51.963L62.943 46.214L59.716 52.127L62.779 52.05L62.925 54.83Z"></path>
<path fill="#BFE2CE" d="M28.023 30.87L24.015 30.205L24.682 26.199C24.749 25.798 24.477 25.417 24.076 25.35C23.672 25.282 23.293 25.554 23.225 25.957L22.559 29.962L18.553 29.294C18.152 29.229 17.77 29.5 17.704 29.9C17.637 30.304 17.909 30.684 18.309 30.751L22.317 31.419L21.649 35.425C21.583 35.826 21.854 36.207 22.258 36.275C22.659 36.341 23.038 36.07 23.106 35.667L23.773 31.661L27.779 32.328C28.182 32.395 28.562 32.123 28.629 31.722C28.696 31.32 28.424 30.939 28.023 30.87Z"></path>
<path fill="#95A43A" d="M31.827 30.805C32.326 30.725 32.825 30.632 33.323 30.528C33.3 29.725 33.182 28.928 32.972 28.156C32.466 28.193 31.959 28.246 31.458 28.312C31.181 27.389 30.75 26.511 30.169 25.714C30.527 25.358 30.877 24.988 31.217 24.61C30.727 23.974 30.159 23.397 29.536 22.895C29.148 23.226 28.77 23.567 28.404 23.916C27.607 23.31 26.738 22.864 25.836 22.57C25.915 22.07 25.981 21.566 26.034 21.062C25.264 20.834 24.468 20.701 23.666 20.663C23.547 21.157 23.442 21.653 23.35 22.153C22.379 22.132 21.409 22.277 20.483 22.576C20.254 22.125 20.012 21.68 19.758 21.237C19.002 21.506 18.279 21.865 17.606 22.303C17.8 22.773 18.006 23.24 18.225 23.695C17.511 24.193 16.86 24.805 16.301 25.532C16.252 25.596 16.202 25.661 16.157 25.727C15.707 25.495 15.247 25.276 14.783 25.07C14.331 25.73 13.953 26.445 13.669 27.197C14.102 27.464 14.542 27.719 14.987 27.96C14.663 28.889 14.506 29.856 14.507 30.817C14.007 30.896 13.508 30.991 13.012 31.096C13.033 31.896 13.151 32.695 13.361 33.469C13.868 33.429 14.373 33.377 14.876 33.311C15.152 34.232 15.585 35.113 16.165 35.908C15.806 36.265 15.457 36.635 15.118 37.012C15.608 37.647 16.176 38.223 16.798 38.726C17.186 38.394 17.563 38.055 17.93 37.707C18.727 38.311 19.596 38.76 20.498 39.051C20.419 39.551 20.352 40.053 20.3 40.56C21.071 40.787 21.867 40.919 22.667 40.959C22.787 40.465 22.892 39.967 22.983 39.47C23.955 39.489 24.925 39.346 25.85 39.044C26.079 39.495 26.321 39.941 26.577 40.384C27.331 40.114 28.056 39.758 28.728 39.317C28.536 38.846 28.327 38.382 28.109 37.924C28.824 37.428 29.474 36.815 30.032 36.089C30.083 36.024 30.13 35.959 30.179 35.894C30.63 36.124 31.087 36.345 31.553 36.552C32.003 35.89 32.381 35.175 32.665 34.425C32.233 34.157 31.793 33.904 31.347 33.659C31.669 32.734 31.827 31.769 31.827 30.805Z"></path>
<path fill="#A9BF38" d="M22.2841 36.113C25.2111 36.601 27.98 34.622 28.466 31.695C28.953 28.767 26.9751 25.999 24.0471 25.512C21.1201 25.026 18.352 27.003 17.865 29.93C17.378 32.858 19.3571 35.625 22.2841 36.113ZM23.815 26.911C25.971 27.268 27.427 29.308 27.067 31.463C26.709 33.618 24.671 35.074 22.515 34.717C20.359 34.359 18.904 32.32 19.262 30.165C19.622 28.007 21.66 26.551 23.815 26.911Z"></path>
<path fill="#A9BF38" d="M23.1661 32.815C24.2723 32.815 25.1691 31.9182 25.1691 30.812C25.1691 29.7058 24.2723 28.809 23.1661 28.809C22.0599 28.809 21.1631 29.7058 21.1631 30.812C21.1631 31.9182 22.0599 32.815 23.1661 32.815Z"></path>
<path fill="#BFB131" d="M102.065 25.067C99.033 25.053 96.561 27.5 96.549 30.531C96.535 33.565 98.982 36.035 102.014 36.049C105.046 36.063 107.517 33.618 107.53 30.584C107.545 27.551 105.097 25.083 102.065 25.067ZM102.021 34.6C99.788 34.59 97.985 32.772 97.996 30.539C98.006 28.307 99.826 26.503 102.059 26.514C104.291 26.526 106.093 28.344 106.082 30.577C106.073 32.81 104.253 34.611 102.021 34.6Z"></path>
<path fill="#CFB52B" d="M102.039 32.604C103.169 32.604 104.085 31.688 104.085 30.558C104.085 29.428 103.169 28.512 102.039 28.512C100.909 28.512 99.993 29.428 99.993 30.558C99.993 31.688 100.909 32.604 102.039 32.604Z"></path>
<path fill="#8DC63F" d="M17.924 59.128C19.4732 59.128 20.729 57.8722 20.729 56.323C20.729 54.7738 19.4732 53.518 17.924 53.518C16.3749 53.518 15.119 54.7738 15.119 56.323C15.119 57.8722 16.3749 59.128 17.924 59.128Z"></path>
<path fill="#FEBC11" d="M5.562 67.497C5.112 67.182 4.847 66.785 4.771 66.309C4.694 65.83 4.824 65.352 5.161 64.869C5.529 64.343 5.968 64.024 6.476 63.92C6.985 63.818 7.48199 63.934 7.97299 64.275C8.43999 64.602 8.70799 64.997 8.77699 65.46C8.84599 65.923 8.70399 66.408 8.34999 66.915C7.98799 67.436 7.55199 67.749 7.04799 67.851C6.54199 67.954 6.046 67.835 5.562 67.497ZM12.424 67.51L3.88199 70.966L2.80499 70.217L11.338 66.753L12.424 67.51ZM7.40399 65.032C6.97199 64.734 6.551 64.884 6.133 65.479C5.739 66.045 5.747 66.471 6.157 66.755C6.574 67.048 6.98899 66.901 7.39899 66.31C7.79799 65.737 7.80099 65.31 7.40399 65.032ZM7.26599 73.456C6.81499 73.142 6.551 72.748 6.476 72.27C6.398 71.792 6.52899 71.311 6.86699 70.828C7.23299 70.302 7.67198 69.987 8.18098 69.881C8.68998 69.776 9.187 69.895 9.67599 70.237C10.148 70.563 10.418 70.959 10.488 71.417C10.555 71.879 10.414 72.36 10.061 72.868C9.69599 73.388 9.26099 73.7 8.75499 73.807C8.24799 73.912 7.75199 73.797 7.26599 73.456ZM9.09499 70.986C8.66799 70.689 8.24699 70.838 7.82899 71.435C7.43499 72 7.44499 72.427 7.85999 72.717C8.27799 73.009 8.69299 72.86 9.10399 72.271C9.29299 71.996 9.387 71.747 9.379 71.518C9.373 71.29 9.27699 71.113 9.09499 70.986Z"></path>
<path fill="#95A43A" d="M91.412 58.123L92.013 59.037L91.398 59.439L90.815 58.552C90.242 58.926 89.627 59.143 88.968 59.211L88.2 58.045C88.449 58.069 88.772 58.031 89.17 57.932C89.566 57.833 89.897 57.708 90.16 57.557L89.151 56.026C88.335 56.214 87.712 56.245 87.284 56.118C86.858 55.991 86.51 55.722 86.239 55.31C85.95 54.871 85.859 54.392 85.966 53.879C86.073 53.363 86.367 52.911 86.847 52.522L86.331 51.739L86.946 51.336L87.45 52.103C88.06 51.74 88.566 51.545 88.966 51.517L89.713 52.655C89.163 52.672 88.625 52.818 88.1 53.089L89.149 54.684C89.91 54.501 90.517 54.465 90.971 54.575C91.424 54.684 91.784 54.941 92.051 55.346C92.358 55.811 92.456 56.285 92.345 56.765C92.236 57.244 91.925 57.699 91.412 58.123ZM88.374 54.844L87.497 53.509C87.152 53.835 87.092 54.168 87.313 54.504C87.503 54.793 87.857 54.907 88.374 54.844ZM89.925 55.862L90.764 57.137C91.125 56.813 91.192 56.481 90.969 56.14C90.791 55.866 90.441 55.773 89.925 55.862Z"></path>
<path fill="#FEBC11" d="M80.593 39.278L79.245 38.715L78.242 41.105L75.984 40.159L76.985 37.769L72.087 35.715L72.746 34.14L80.515 28.841L82.954 29.862L79.984 36.951L81.334 37.515L80.593 39.278ZM79.69 31.407L79.643 31.386C79.491 31.543 79.227 31.777 78.851 32.086L74.881 34.811L77.727 36.003L79.209 32.467C79.34 32.155 79.5 31.8 79.69 31.407Z"></path>
<path fill="#F26522" d="M91.0625 115.221H92.5918L97.3027 128H95.3691L91.8271 117.69L88.2852 128H86.3516L91.0625 115.221ZM88.5225 123.491H95.2461V125.196H88.5225V123.491Z"></path>
<path fill="#95A43A" d="M103.464 128.132C102.573 128.132 101.788 127.938 101.108 127.552C100.429 127.159 99.9014 126.608 99.5264 125.899C99.1572 125.185 98.9727 124.358 98.9727 123.421V119.8C98.9727 118.862 99.1572 118.039 99.5264 117.33C99.9014 116.615 100.429 116.064 101.108 115.678C101.788 115.285 102.573 115.089 103.464 115.089C104.354 115.089 105.14 115.285 105.819 115.678C106.499 116.064 107.023 116.615 107.393 117.33C107.768 118.039 107.955 118.862 107.955 119.8V123.421C107.955 124.358 107.768 125.185 107.393 125.899C107.023 126.608 106.499 127.159 105.819 127.552C105.14 127.938 104.354 128.132 103.464 128.132ZM103.464 126.365C103.991 126.365 104.454 126.248 104.853 126.014C105.257 125.773 105.567 125.437 105.784 125.003C106.007 124.563 106.118 124.057 106.118 123.482V119.738C106.118 119.164 106.007 118.66 105.784 118.227C105.567 117.787 105.257 117.45 104.853 117.216C104.454 116.976 103.991 116.855 103.464 116.855C102.937 116.855 102.471 116.976 102.066 117.216C101.668 117.45 101.357 117.787 101.135 118.227C100.918 118.66 100.81 119.164 100.81 119.738V123.482C100.81 124.057 100.918 124.563 101.135 125.003C101.357 125.437 101.668 125.773 102.066 126.014C102.471 126.248 102.937 126.365 103.464 126.365Z"></path>
</svg>
