<svg preserveAspectRatio="xMidYMid meet" viewBox="0 0 1024.000000 1024.000000" height="1024.000000pt" width="1024.000000pt" xmlns="http://www.w3.org/2000/svg" version="1.0">
<metadata>
Created by potrace 1.14, written by Peter Selinger 2001-2017
</metadata>
<g stroke="none" fill="#000000" transform="translate(0.000000,1024.000000) scale(0.100000,-0.100000)">
<path d="M6518 9365 c-2 -2 -27 -6 -56 -9 -88 -10 -228 -47 -303 -79 -28 -12
-45 -14 -80 -6 -170 39 -501 46 -669 14 -14 -3 -41 -7 -60 -10 -19 -3 -69 -15
-110 -26 -41 -11 -79 -21 -85 -22 -5 -2 -34 -11 -62 -21 -30 -10 -58 -14 -65
-9 -7 4 -15 8 -18 9 -3 0 -30 8 -60 18 -64 21 -160 44 -210 52 -19 3 -37 7
-40 9 -29 18 -397 26 -521 12 -181 -20 -404 -85 -574 -166 -87 -41 -261 -143
-275 -160 -3 -3 -30 -25 -60 -48 -30 -23 -80 -64 -110 -92 l-55 -50 -90 -2
c-126 -2 -266 -13 -305 -24 -8 -2 -31 -7 -50 -10 -51 -9 -174 -43 -249 -69
-332 -116 -614 -322 -829 -603 -34 -45 -62 -85 -62 -89 0 -4 -6 -15 -14 -23
-19 -21 -119 -221 -146 -291 -23 -61 -66 -223 -76 -285 -3 -22 -8 -47 -9 -55
-2 -8 -4 -23 -4 -32 -1 -9 -29 -38 -63 -65 -378 -289 -613 -705 -653 -1158 -6
-58 -5 -254 0 -295 2 -19 7 -55 10 -80 21 -172 119 -442 216 -598 9 -14 2 -35
-30 -99 -205 -406 -154 -892 130 -1238 231 -282 536 -439 913 -470 69 -6 82
-10 101 -33 114 -136 258 -248 423 -331 77 -39 224 -93 282 -105 14 -2 48 -9
77 -15 93 -18 146 -23 253 -24 94 0 133 3 248 18 65 8 226 56 304 90 172 74
296 158 430 292 100 99 93 99 161 -2 71 -103 112 -212 123 -328 4 -40 7 -577
7 -1195 l0 -1123 121 3 121 3 0 1165 c0 1150 0 1166 -21 1265 -24 113 -38 154
-83 243 -17 34 -31 64 -31 67 0 2 10 0 23 -5 29 -12 166 -46 242 -59 78 -14
172 -22 267 -24 43 -1 78 -3 78 -4 0 -1 -24 -25 -53 -55 -107 -107 -192 -248
-236 -392 -21 -69 -24 -84 -36 -166 -5 -33 -10 -1941 -6 -2027 1 -10 32 -13
121 -13 107 0 120 2 121 18 0 9 1 467 2 1017 2 928 4 1005 21 1065 19 69 74
189 105 229 18 23 18 -6 19 -1130 0 -635 1 -1164 1 -1176 1 -23 3 -23 121 -23
l120 0 0 1279 0 1279 48 20 c26 11 59 23 75 27 l27 7 0 -1306 0 -1306 120 0
c89 0 120 3 121 13 0 6 1 599 2 1317 l2 1305 60 0 c33 1 65 0 70 -2 7 -2 10
-450 10 -1318 l0 -1315 122 0 123 0 2 1317 3 1317 185 2 c253 2 355 21 510 97
228 111 403 307 486 545 16 44 23 52 44 53 162 5 373 91 497 202 36 32 43 34
133 40 446 28 835 324 959 732 12 39 24 85 27 104 3 18 7 43 10 54 2 12 4 44
5 72 l2 51 71 23 c257 83 514 281 654 505 276 440 225 991 -127 1376 -40 43
-46 54 -41 75 4 23 1 173 -4 210 -33 216 -127 397 -283 545 -117 111 -229 179
-380 229 l-88 29 -40 70 c-149 256 -394 445 -674 517 -63 16 -86 20 -166 31
-22 2 -44 12 -50 21 -165 266 -380 440 -667 542 -49 17 -88 28 -88 26 0 -2
-12 0 -27 6 -15 6 -46 13 -68 15 -22 3 -51 8 -65 11 -25 6 -297 13 -302 8z
m37 -5244 c48 -52 165 -136 225 -163 19 -9 51 -23 70 -31 19 -9 50 -18 68 -22
17 -4 32 -11 32 -17 0 -18 -60 -130 -95 -178 -97 -132 -253 -233 -426 -277
-13 -3 -115 -8 -226 -10 l-203 -5 0 74 0 74 68 57 c151 125 302 311 387 475
21 39 42 72 46 72 5 0 29 -22 54 -49z"></path>
</g>
</svg>
