<svg overflow="hidden" xmlns:xlink="http://www.w3.org/1999/xlink" xmlns="http://www.w3.org/2000/svg" height="991" width="1650"><defs><filter primitiveUnits="userSpaceOnUse" filterUnits="userSpaceOnUse" height="120%" width="120%" y="-10%" x="-10%" id="fx0"><feComponentTransfer color-interpolation-filters="sRGB"><feFuncR type="discrete"></feFuncR><feFuncG type="discrete"></feFuncG><feFuncB type="discrete"></feFuncB><feFuncA type="linear"></feFuncA></feComponentTransfer><feGaussianBlur stdDeviation="6.875 6.875"></feGaussianBlur></filter><filter primitiveUnits="userSpaceOnUse" filterUnits="userSpaceOnUse" height="120%" width="120%" y="-10%" x="-10%" id="fx1"><feComponentTransfer color-interpolation-filters="sRGB"><feFuncR type="discrete"></feFuncR><feFuncG type="discrete"></feFuncG><feFuncB type="discrete"></feFuncB><feFuncA type="linear"></feFuncA></feComponentTransfer><feGaussianBlur stdDeviation="6.875 6.875"></feGaussianBlur></filter><clipPath id="clip2"><rect height="991" width="1650" y="689" x="844"></rect></clipPath><radialGradient gradientTransform="matrix(0.000360892 0 0 0.000360892 844 689)" id="fill3" spreadMethod="pad" gradientUnits="userSpaceOnUse" fx="2.286e+06" r="2.66591e+06" cy="1.3716e+06" cx="2.286e+06"><stop stop-color="#595959" offset="0"></stop><stop stop-color="#585858" offset="0.02"></stop><stop stop-color="#585858" offset="0.04"></stop><stop stop-color="#585858" offset="0.06"></stop><stop stop-color="#585858" offset="0.08"></stop><stop stop-color="#585858" offset="0.1"></stop><stop stop-color="#585858" offset="0.12"></stop><stop stop-color="#575757" offset="0.14"></stop><stop stop-color="#575757" offset="0.16"></stop><stop stop-color="#565656" offset="0.18"></stop><stop stop-color="#565656" offset="0.2"></stop><stop stop-color="#565656" offset="0.22"></stop><stop stop-color="#555555" offset="0.24"></stop><stop stop-color="#545454" offset="0.26"></stop><stop stop-color="#545454" offset="0.28"></stop><stop stop-color="#535353" offset="0.3"></stop><stop stop-color="#525252" offset="0.32"></stop><stop stop-color="#525252" offset="0.34"></stop><stop stop-color="#515151" offset="0.36"></stop><stop stop-color="#505050" offset="0.38"></stop><stop stop-color="#4F4F4F" offset="0.4"></stop><stop stop-color="#4E4E4E" offset="0.42"></stop><stop stop-color="#4E4E4E" offset="0.44"></stop><stop stop-color="#4D4D4D" offset="0.46"></stop><stop stop-color="#4C4C4C" offset="0.48"></stop><stop stop-color="#4B4B4B" offset="0.5"></stop><stop stop-color="#4A4A4A" offset="0.52"></stop><stop stop-color="#484848" offset="0.54"></stop><stop stop-color="#474747" offset="0.56"></stop><stop stop-color="#464646" offset="0.58"></stop><stop stop-color="#454545" offset="0.6"></stop><stop stop-color="#444444" offset="0.62"></stop><stop stop-color="#424242" offset="0.64"></stop><stop stop-color="#414141" offset="0.66"></stop><stop stop-color="#404040" offset="0.68"></stop><stop stop-color="#3E3E3E" offset="0.7"></stop><stop stop-color="#3D3D3D" offset="0.72"></stop><stop stop-color="#3C3C3C" offset="0.74"></stop><stop stop-color="#3A3A3A" offset="0.76"></stop><stop stop-color="#383838" offset="0.78"></stop><stop stop-color="#373737" offset="0.8"></stop><stop stop-color="#353535" offset="0.82"></stop><stop stop-color="#343434" offset="0.84"></stop><stop stop-color="#323232" offset="0.86"></stop><stop stop-color="#303030" offset="0.88"></stop><stop stop-color="#2F2F2F" offset="0.9"></stop><stop stop-color="#2D2D2D" offset="0.92"></stop><stop stop-color="#2B2B2B" offset="0.94"></stop><stop stop-color="#292929" offset="0.96"></stop><stop stop-color="#272727" offset="0.98"></stop><stop stop-color="#262626" offset="1"></stop></radialGradient><clipPath id="clip4"><rect height="990" width="1650" y="689" x="843"></rect></clipPath><clipPath id="clip5"><rect height="699" width="1330" y="739" x="1026"></rect></clipPath><clipPath id="clip6"><rect height="700" width="1319" y="-3" x="-3"></rect></clipPath><clipPath id="clip7"><rect height="696" width="1313" y="0" x="0"></rect></clipPath><clipPath id="clip8"><rect height="699" width="1330" y="739" x="1026"></rect></clipPath><clipPath id="clip9"><rect height="699" width="1330" y="739" x="1026"></rect></clipPath><clipPath id="clip10"><rect height="553" width="1319" y="-3" x="-3"></rect></clipPath><clipPath id="clip11"><rect height="546" width="1313" y="0" x="0"></rect></clipPath><clipPath id="clip12"><rect height="699" width="1330" y="739" x="1026"></rect></clipPath><clipPath id="clip13"><rect height="990" width="1650" y="689" x="843"></rect></clipPath><clipPath id="clip14"><rect height="990" width="1650" y="689" x="843"></rect></clipPath><clipPath id="clip15"><rect height="990" width="1650" y="689" x="843"></rect></clipPath><clipPath id="clip16"><rect height="990" width="1650" y="689" x="843"></rect></clipPath><clipPath id="clip17"><rect height="990" width="1650" y="689" x="843"></rect></clipPath><clipPath id="clip18"><rect height="990" width="1650" y="689" x="843"></rect></clipPath><clipPath id="clip19"><rect height="990" width="1650" y="689" x="843"></rect></clipPath><clipPath id="clip20"><rect height="990" width="1650" y="689" x="843"></rect></clipPath><clipPath id="clip21"><rect height="990" width="1650" y="689" x="843"></rect></clipPath><clipPath id="clip22"><rect height="990" width="1650" y="689" x="843"></rect></clipPath><clipPath id="clip23"><rect height="990" width="1650" y="689" x="843"></rect></clipPath><clipPath id="clip24"><rect height="990" width="1650" y="689" x="843"></rect></clipPath><clipPath id="clip25"><rect height="990" width="1650" y="689" x="843"></rect></clipPath><clipPath id="clip26"><rect height="990" width="1650" y="689" x="843"></rect></clipPath><clipPath id="clip27"><rect height="990" width="1650" y="689" x="843"></rect></clipPath><clipPath id="clip28"><rect height="990" width="1650" y="689" x="843"></rect></clipPath><clipPath id="clip29"><rect height="990" width="1650" y="689" x="843"></rect></clipPath><clipPath id="clip30"><rect height="990" width="1650" y="689" x="843"></rect></clipPath><clipPath id="clip31"><rect height="990" width="1650" y="689" x="843"></rect></clipPath><clipPath id="clip32"><rect height="990" width="1650" y="689" x="843"></rect></clipPath><clipPath id="clip33"><rect height="990" width="1650" y="689" x="843"></rect></clipPath><clipPath id="clip34"><rect height="990" width="1650" y="689" x="843"></rect></clipPath><clipPath id="clip35"><rect height="990" width="1650" y="689" x="843"></rect></clipPath><clipPath id="clip36"><rect height="990" width="1650" y="689" x="843"></rect></clipPath><clipPath id="clip37"><rect height="990" width="1650" y="689" x="843"></rect></clipPath><clipPath id="clip38"><rect height="990" width="1650" y="689" x="843"></rect></clipPath><clipPath id="clip39"><rect height="990" width="1650" y="689" x="843"></rect></clipPath><clipPath id="clip40"><rect height="990" width="1650" y="689" x="843"></rect></clipPath><clipPath id="clip41"><rect height="990" width="1650" y="689" x="843"></rect></clipPath><clipPath id="clip42"><rect height="990" width="1650" y="689" x="843"></rect></clipPath><clipPath id="clip43"><rect height="990" width="1650" y="689" x="843"></rect></clipPath><clipPath id="clip44"><rect height="990" width="1650" y="689" x="843"></rect></clipPath><clipPath id="clip45"><rect height="990" width="1650" y="689" x="843"></rect></clipPath><clipPath id="clip46"><rect height="990" width="1650" y="689" x="843"></rect></clipPath><clipPath id="clip47"><rect height="990" width="1650" y="689" x="843"></rect></clipPath><clipPath id="clip48"><rect height="990" width="1650" y="689" x="843"></rect></clipPath><clipPath id="clip49"><rect height="991" width="1651" y="689" x="843"></rect></clipPath></defs><g transform="translate(-844 -689)" clip-path="url(#clip2)"><rect fill="url(#fill3)" height="990" width="1650" y="689" x="844"></rect><g clip-path="url(#clip4)"><path fill-rule="evenodd" fill="none" stroke-opacity="0.541176" stroke-miterlimit="10" stroke-linejoin="round" stroke-width="4.58333" stroke="#F2F2F2" d="M1026.5 1434.5 2352.5 1434.5"></path></g><g clip-path="url(#clip5)"><g transform="translate(1033 720)" filter="url(#fx0)" clip-path="url(#clip6)"><g clip-path="url(#clip7)"><path fill="none" stroke-miterlimit="10" stroke-linejoin="round" stroke-linecap="round" stroke-width="13" stroke="#548235" d="M28.5 667.375 98.5373 627.419 168.54 585.418 237.542 549.417 307.544 510.415 377.546 474.414 447.549 437.413 517.551 399.412 586.553 370.411 656.556 340.41 726.558 311.409 796.56 287.408 866.562 262.407 935.565 245.407 1005.57 203.405 1075.57 149.403 1145.57 104.402 1214.57 68.4008 1284.5 28.3749"></path></g></g></g><g clip-path="url(#clip8)"><path fill="none" stroke-miterlimit="10" stroke-linejoin="round" stroke-linecap="round" stroke-width="12.6042" stroke="#548235" d="M1061.5 1380.5 1131.54 1340.54 1201.54 1298.54 1270.54 1262.54 1340.54 1223.54 1410.55 1187.54 1480.55 1150.54 1550.55 1112.54 1619.55 1083.54 1689.56 1053.53 1759.56 1024.53 1829.56 1000.53 1899.56 975.532 1968.56 958.532 2038.57 916.53 2108.57 862.528 2178.57 817.527 2247.57 781.526 2317.5 741.5"></path></g><g clip-path="url(#clip9)"><g transform="translate(1033 852)" filter="url(#fx1)" clip-path="url(#clip10)"><g clip-path="url(#clip11)"><path fill="none" stroke-miterlimit="10" stroke-linejoin="round" stroke-linecap="round" stroke-width="13" stroke="#C00000" d="M28.5 517.375 98.5373 482.419 168.54 445.417 237.542 404.416 307.544 361.415 377.546 315.413 447.549 267.412 517.551 218.41 586.553 171.409 656.556 128.407 726.558 91.4059 796.56 62.4049 866.562 42.4043 935.565 31.4039 1005.57 28.3749 1075.57 31.4039 1145.57 37.4041 1214.57 42.4043 1284.5 44.4043"></path></g></g></g><g clip-path="url(#clip12)"><path fill="none" stroke-miterlimit="10" stroke-linejoin="round" stroke-linecap="round" stroke-width="12.6042" stroke="#C00000" d="M1061.5 1362.5 1131.54 1327.54 1201.54 1290.54 1270.54 1249.54 1340.54 1206.54 1410.55 1160.54 1480.55 1112.54 1550.55 1063.54 1619.55 1016.53 1689.56 973.532 1759.56 936.531 1829.56 907.53 1899.56 887.529 1968.56 876.529 2038.57 873.5 2108.57 876.529 2178.57 882.529 2247.57 887.529 2317.5 889.529"></path></g><g clip-path="url(#clip13)"><text transform="matrix(1 0 0 1 2391.01 1446)" font-size="41" font-weight="400" font-family="Calibri,Calibri_MSFontService,sans-serif" fill="#D9D9D9">76.5</text></g><g clip-path="url(#clip14)"><text transform="matrix(1 0 0 1 2391.01 1330)" font-size="41" font-weight="400" font-family="Calibri,Calibri_MSFontService,sans-serif" fill="#D9D9D9">77</text></g><g clip-path="url(#clip15)"><text transform="matrix(1 0 0 1 2391.01 1215)" font-size="41" font-weight="400" font-family="Calibri,Calibri_MSFontService,sans-serif" fill="#D9D9D9">77.5</text></g><g clip-path="url(#clip16)"><text transform="matrix(1 0 0 1 2391.01 1099)" font-size="41" font-weight="400" font-family="Calibri,Calibri_MSFontService,sans-serif" fill="#D9D9D9">78</text></g><g clip-path="url(#clip17)"><text transform="matrix(1 0 0 1 2391.01 983)" font-size="41" font-weight="400" font-family="Calibri,Calibri_MSFontService,sans-serif" fill="#D9D9D9">78.5</text></g><g clip-path="url(#clip18)"><text transform="matrix(1 0 0 1 2391.01 867)" font-size="41" font-weight="400" font-family="Calibri,Calibri_MSFontService,sans-serif" fill="#D9D9D9">79</text></g><g clip-path="url(#clip19)"><text transform="matrix(1 0 0 1 2391.01 751)" font-size="41" font-weight="400" font-family="Calibri,Calibri_MSFontService,sans-serif" fill="#D9D9D9">79.5</text></g><g clip-path="url(#clip20)"><text transform="matrix(1 0 0 1 873.698 1446)" font-size="41" font-weight="400" font-family="Calibri,Calibri_MSFontService,sans-serif" fill="#D9D9D9">$3,500</text></g><g clip-path="url(#clip21)"><text transform="matrix(1 0 0 1 873.698 1320)" font-size="41" font-weight="400" font-family="Calibri,Calibri_MSFontService,sans-serif" fill="#D9D9D9">$4,500</text></g><g clip-path="url(#clip22)"><text transform="matrix(1 0 0 1 873.698 1194)" font-size="41" font-weight="400" font-family="Calibri,Calibri_MSFontService,sans-serif" fill="#D9D9D9">$5,500</text></g><g clip-path="url(#clip23)"><text transform="matrix(1 0 0 1 873.698 1067)" font-size="41" font-weight="400" font-family="Calibri,Calibri_MSFontService,sans-serif" fill="#D9D9D9">$6,500</text></g><g clip-path="url(#clip24)"><text transform="matrix(1 0 0 1 873.698 941)" font-size="41" font-weight="400" font-family="Calibri,Calibri_MSFontService,sans-serif" fill="#D9D9D9">$7,500</text></g><g clip-path="url(#clip25)"><text transform="matrix(1 0 0 1 873.698 814)" font-size="41" font-weight="400" font-family="Calibri,Calibri_MSFontService,sans-serif" fill="#D9D9D9">$8,500</text></g><g clip-path="url(#clip26)"><text transform="matrix(6.12323e-17 -1 1 6.12323e-17 1075.47 1545)" font-size="41" font-weight="400" font-family="Calibri,Calibri_MSFontService,sans-serif" fill="#D9D9D9">2000</text></g><g clip-path="url(#clip27)"><text transform="matrix(6.12323e-17 -1 1 6.12323e-17 1145.26 1545)" font-size="41" font-weight="400" font-family="Calibri,Calibri_MSFontService,sans-serif" fill="#D9D9D9">2001</text></g><g clip-path="url(#clip28)"><text transform="matrix(6.12323e-17 -1 1 6.12323e-17 1215.05 1545)" font-size="41" font-weight="400" font-family="Calibri,Calibri_MSFontService,sans-serif" fill="#D9D9D9">2002</text></g><g clip-path="url(#clip29)"><text transform="matrix(6.12323e-17 -1 1 6.12323e-17 1284.84 1545)" font-size="41" font-weight="400" font-family="Calibri,Calibri_MSFontService,sans-serif" fill="#D9D9D9">2003</text></g><g clip-path="url(#clip30)"><text transform="matrix(6.12323e-17 -1 1 6.12323e-17 1354.63 1545)" font-size="41" font-weight="400" font-family="Calibri,Calibri_MSFontService,sans-serif" fill="#D9D9D9">2004</text></g><g clip-path="url(#clip31)"><text transform="matrix(6.12323e-17 -1 1 6.12323e-17 1424.42 1545)" font-size="41" font-weight="400" font-family="Calibri,Calibri_MSFontService,sans-serif" fill="#D9D9D9">2005</text></g><g clip-path="url(#clip32)"><text transform="matrix(6.12323e-17 -1 1 6.12323e-17 1494.21 1545)" font-size="41" font-weight="400" font-family="Calibri,Calibri_MSFontService,sans-serif" fill="#D9D9D9">2006</text></g><g clip-path="url(#clip33)"><text transform="matrix(6.12323e-17 -1 1 6.12323e-17 1564 1545)" font-size="41" font-weight="400" font-family="Calibri,Calibri_MSFontService,sans-serif" fill="#D9D9D9">2007</text></g><g clip-path="url(#clip34)"><text transform="matrix(6.12323e-17 -1 1 6.12323e-17 1633.79 1545)" font-size="41" font-weight="400" font-family="Calibri,Calibri_MSFontService,sans-serif" fill="#D9D9D9">2008</text></g><g clip-path="url(#clip35)"><text transform="matrix(6.12323e-17 -1 1 6.12323e-17 1703.58 1545)" font-size="41" font-weight="400" font-family="Calibri,Calibri_MSFontService,sans-serif" fill="#D9D9D9">2009</text></g><g clip-path="url(#clip36)"><text transform="matrix(6.12323e-17 -1 1 6.12323e-17 1773.36 1545)" font-size="41" font-weight="400" font-family="Calibri,Calibri_MSFontService,sans-serif" fill="#D9D9D9">2010</text></g><g clip-path="url(#clip37)"><text transform="matrix(6.12323e-17 -1 1 6.12323e-17 1843.15 1545)" font-size="41" font-weight="400" font-family="Calibri,Calibri_MSFontService,sans-serif" fill="#D9D9D9">2011</text></g><g clip-path="url(#clip38)"><text transform="matrix(6.12323e-17 -1 1 6.12323e-17 1912.94 1545)" font-size="41" font-weight="400" font-family="Calibri,Calibri_MSFontService,sans-serif" fill="#D9D9D9">2012</text></g><g clip-path="url(#clip39)"><text transform="matrix(6.12323e-17 -1 1 6.12323e-17 1982.73 1545)" font-size="41" font-weight="400" font-family="Calibri,Calibri_MSFontService,sans-serif" fill="#D9D9D9">2013</text></g><g clip-path="url(#clip40)"><text transform="matrix(6.12323e-17 -1 1 6.12323e-17 2052.52 1545)" font-size="41" font-weight="400" font-family="Calibri,Calibri_MSFontService,sans-serif" fill="#D9D9D9">2014</text></g><g clip-path="url(#clip41)"><text transform="matrix(6.12323e-17 -1 1 6.12323e-17 2122.31 1545)" font-size="41" font-weight="400" font-family="Calibri,Calibri_MSFontService,sans-serif" fill="#D9D9D9">2015</text></g><g clip-path="url(#clip42)"><text transform="matrix(6.12323e-17 -1 1 6.12323e-17 2192.1 1545)" font-size="41" font-weight="400" font-family="Calibri,Calibri_MSFontService,sans-serif" fill="#D9D9D9">2016</text></g><g clip-path="url(#clip43)"><text transform="matrix(6.12323e-17 -1 1 6.12323e-17 2261.89 1545)" font-size="41" font-weight="400" font-family="Calibri,Calibri_MSFontService,sans-serif" fill="#D9D9D9">2017</text></g><g clip-path="url(#clip44)"><text transform="matrix(6.12323e-17 -1 1 6.12323e-17 2331.68 1545)" font-size="41" font-weight="400" font-family="Calibri,Calibri_MSFontService,sans-serif" fill="#D9D9D9">2018</text></g><g clip-path="url(#clip45)"><path fill-rule="evenodd" fill="none" stroke-miterlimit="10" stroke-linejoin="round" stroke-linecap="round" stroke-width="12.6042" stroke="#548235" d="M1017.5 1608.5 1105.5 1608.5"></path></g><g clip-path="url(#clip46)"><text transform="matrix(1 0 0 1 1114.98 1620)" font-size="41" font-weight="400" font-family="Calibri,Calibri_MSFontService,sans-serif" fill="#D9D9D9">US Healthcare Spending Per Person</text></g><g clip-path="url(#clip47)"><path fill-rule="evenodd" fill="none" stroke-miterlimit="10" stroke-linejoin="round" stroke-linecap="round" stroke-width="12.6042" stroke="#C00000" d="M1762.5 1608.5 1850.5 1608.5"></path></g><g clip-path="url(#clip48)"><text transform="matrix(1 0 0 1 1860.27 1620)" font-size="41" font-weight="400" font-family="Calibri,Calibri_MSFontService,sans-serif" fill="#D9D9D9">Life Expectancy</text></g><g clip-path="url(#clip49)"><text transform="matrix(1 0 0 1 2147.06 1657)" font-size="37" font-weight="400" font-family="Calibri,Calibri_MSFontService,sans-serif" fill="#D9D9D9">AnonymousDAO.org</text></g></g></svg>