<svg viewBox="0 0 744 210" xmlns="http://www.w3.org/2000/svg"><defs><style>.cls-1{fill:#a9ba49;}.cls-2{fill:#f37d2d;}.cls-3{fill:#fff;}</style></defs><g data-name="Layer 1" id="Layer_1"><path d="M686.47,35.21h19.61V47.36c4.67-8.88,14.95-12.15,22.43-12.15h7V54.83H727.1c-12.14,0-19.61,9.81-20.08,21v53.7H686V35.21Z" class="cls-1"></path><path d="M675.26,93.13v5.14c0,18.68-13.08,32.69-30.82,32.69H632.77c-17.76,0-31.3-14-31.3-32.23V65.57a31.89,31.89,0,0,1,32.22-31.76H644c17.74,0,31.29,14,31.29,31.76V81.45H621.09V98.27c0,8.4,5.6,16.34,14.94,16.34h5.61c9.34,0,14-7.94,14-16.81V93.6h19.61ZM621.09,67.44h35V65.57c0-8.4-5.13-15.87-14-15.87h-6.55c-9.34,0-14.47,7-14.47,15.87Z" class="cls-1"></path><path d="M520.21,35.21H531V18.87H551V35.21H592.6V53H551v48.57c0,6.07,3.72,11.21,9.8,11.21h3.26c7.95,0,10.75-5.61,10.75-11.67v-7h18.68V104.8a25.72,25.72,0,0,1-26.15,25.69H556.63c-14.93,0-25.68-11.68-25.68-24.76V53H520.21Z" class="cls-1"></path><path d="M465.1,35.21h19.61V47.36c4.67-8.88,15-12.15,22.42-12.15h7V54.83h-8.42c-12.14,0-19.6,9.81-20.07,21v53.7h-21V35.21Z" class="cls-1"></path><path d="M456.69,129.55h-9.81c-9.34,0-14.95-3.27-17.75-7.94-5.14,6.08-13.55,8.88-22,8.88H398.3c-13.09,0-25.23-7.47-25.23-24.29,0-16.34,10.74-25.22,26.16-25.22h28V66c0-7.47-5.14-14-12.62-14H410c-8.87,0-13.08,7-13.08,14.48v3.73H377.27V62.77c0-15.88,12.62-28.95,30.37-28.95h11.21c17.29,0,29.44,12.61,29.44,28v42.49c0,6.07,2.33,7.94,7.47,7.94h1.87v17.28Zm-45.78-14.47c5.61,0,15.88-3.27,15.88-15.88V95h-21c-7.94,0-12.15,3.75-12.15,10.27,0,7,5.14,9.82,11.21,9.82Z" class="cls-1"></path><path d="M292.28,35.21H303V18.87H323.1V35.21h41.57V53H323.1v48.57c0,6.07,3.27,11.21,9.8,11.21h3.27c7.95,0,10.75-5.61,10.75-11.67v-7H365.6V104.8a25.72,25.72,0,0,1-26.15,25.69H328.7c-14.94,0-25.68-11.68-25.68-24.76V53H292.28Z" class="cls-1"></path><path d="M211.48,97.8h20.08V102c0,7,4.68,12.15,14,12.15h6.53c8.88,0,13.55-4.68,13.55-10.75V102c0-7.47-5.14-11.68-15.88-11.68H246c-20.55,0-33.16-9.8-33.16-26.15V60.44c0-14.95,12.14-27.09,30.36-27.09h11.21c17.74,0,29.89,12.14,29.89,26.15v6.07H264.26v-4.2c0-6.54-4.67-11.68-13.08-11.68H246.5c-8.86,0-13.07,4.67-13.07,10.75v.93c0,7,4.67,11.68,15.88,11.68H253c20.09,0,33.63,9.8,33.63,26.15v5.13c0,15.41-13.54,27.09-29.89,27.09H241.37c-17.28,0-29.42-11.68-29.42-25.23V97.8Z" class="cls-1"></path><path d="M179.72,6.73h21V24.94h-21Zm0,28.48h21v93.88h-21Z" class="cls-2"></path><path d="M168.51,90.79v7.94c0,17.75-13.54,32.23-31.29,32.23H124.61c-17.75,0-31.29-14.48-31.29-32.23V66c0-17.75,14-32.23,31.29-32.23h12.61c17.75,0,31.29,14.48,31.29,32.23V74H148.43V67.91c0-8.41-5.13-16.35-14-16.35h-6.54c-9.34,0-14,7.94-14,16.35V96.4c0,8.4,5.13,16.34,14.47,16.34h6.08c8.88,0,14-7.94,14-16.34V90.79Z" class="cls-2"></path><path d="M8.79,97.8H28.87V102c0,7,4.67,12.15,14,12.15h6.54c8.87,0,13.54-4.68,13.54-10.75V102c0-7.47-5.13-11.68-15.87-11.68H43.81c-20.54,0-33.16-9.8-33.16-26.15V60.44C10.65,45.49,22.8,33.35,41,33.35H52.22C70,33.35,82.11,45.49,82.11,59.5v6.07H62v-4.2C62,54.83,57.35,49.69,49,49.69H44.28c-8.87,0-13.08,4.67-13.08,10.75v.93c0,7,4.67,11.68,15.89,11.68h3.73c20.08,0,33.63,9.8,33.63,26.15v5.13c0,15.41-13.55,27.09-29.89,27.09H38.67c-17.74-.93-29.88-12.6-29.88-26.15Z" class="cls-2"></path><path d="M13.36,183.88a20.06,20.06,0,0,0,9.41,2.45c4.37,0,6.78-2,6.78-5,0-2.78-1.94-4.42-6.74-6.17-6.39-2.31-10.5-5.8-10.5-11.36,0-6.45,5.37-11.32,14-11.32a21.16,21.16,0,0,1,9.41,1.91L34,160.51a17.15,17.15,0,0,0-7.79-1.83c-4.28,0-6.16,2.22-6.16,4.42,0,2.83,2.2,4.14,7.31,6.12,6.75,2.59,10,6.05,10,11.58,0,6.35-4.81,11.8-15,11.8a23.16,23.16,0,0,1-10.56-2.43Z" class="cls-3"></path><path d="M65.06,191.2a20,20,0,0,1-7.83,1.4c-8.84,0-14.53-5.61-14.53-14.4,0-8.38,5.7-15,15.7-15a18.6,18.6,0,0,1,6.73,1.22l-1.28,5.68a11.89,11.89,0,0,0-5.17-1c-5.15,0-8.26,3.77-8.24,8.77,0,5.59,3.66,8.74,8.29,8.74a13.43,13.43,0,0,0,5.36-1Z" class="cls-3"></path><path d="M79,156a3.93,3.93,0,0,1-4.23,4A4,4,0,1,1,79,156Zm-8,36V163.84h7.59V192Z" class="cls-3"></path><path d="M92.47,180.14c.2,4.69,4,6.76,8.4,6.76a21.66,21.66,0,0,0,7.68-1.27l1.09,5.2a26,26,0,0,1-9.87,1.77c-9.21,0-14.56-5.61-14.56-14.28,0-7.64,4.64-15.11,13.81-15.11s12.17,7.33,12.17,13.78a15.75,15.75,0,0,1-.27,3.15Zm11.61-5.26c0-2.51-1-6.53-5.52-6.53-4.13,0-5.83,3.8-6.12,6.53Z" class="cls-3"></path><path d="M117.61,172.39c0-3.33-.11-6.08-.23-8.55H124l.37,4.1h.17a10.17,10.17,0,0,1,8.83-4.73c5.15,0,10,3.38,10,12V192h-7.59V176.14c0-3.88-1.41-6.77-5-6.77a5.49,5.49,0,0,0-5.15,3.89,6.8,6.8,0,0,0-.32,2.24V192h-7.59Z" class="cls-3"></path><path d="M172.14,191.2a20,20,0,0,1-7.82,1.4c-8.85,0-14.53-5.61-14.53-14.4,0-8.38,5.69-15,15.69-15a18.66,18.66,0,0,1,6.74,1.22l-1.28,5.68a11.91,11.91,0,0,0-5.18-1c-5.15,0-8.26,3.77-8.23,8.77,0,5.59,3.65,8.74,8.29,8.74a13.37,13.37,0,0,0,5.35-1Z" class="cls-3"></path><path d="M183.15,180.14c.21,4.69,4,6.76,8.4,6.76a21.68,21.68,0,0,0,7.69-1.27l1.08,5.2a25.94,25.94,0,0,1-9.87,1.77c-9.2,0-14.55-5.61-14.55-14.28,0-7.64,4.63-15.11,13.8-15.11s12.17,7.33,12.17,13.78a15.93,15.93,0,0,1-.26,3.15Zm11.62-5.26c0-2.51-1.06-6.53-5.52-6.53-4.13,0-5.84,3.8-6.13,6.53Z" class="cls-3"></path><path d="M225.72,163.84l2.71,12.41c.64,3,1.24,6,1.74,9.14h.14c.55-3.07,1.42-6.23,2.18-9.08l3.45-12.47H242L245.31,176c.83,3.26,1.6,6.34,2.17,9.43h.13c.43-3.07,1-6.18,1.78-9.44l2.88-12.11h7.43L251,192h-7.05l-3.14-11a87.83,87.83,0,0,1-2-8.94h-.11a72.72,72.72,0,0,1-2,8.93l-3.33,11h-7.07L218,163.84Z" class="cls-3"></path><path d="M269.73,180.14c.21,4.69,4,6.76,8.4,6.76a21.68,21.68,0,0,0,7.69-1.27l1.09,5.2A26,26,0,0,1,277,192.6c-9.21,0-14.56-5.61-14.56-14.28,0-7.64,4.64-15.11,13.8-15.11s12.18,7.33,12.18,13.78a15.75,15.75,0,0,1-.27,3.15Zm11.62-5.26c0-2.51-1.06-6.53-5.52-6.53-4.13,0-5.84,3.8-6.13,6.53Z" class="cls-3"></path><path d="M328.15,191.2a20,20,0,0,1-7.82,1.4c-8.85,0-14.53-5.61-14.53-14.4,0-8.38,5.69-15,15.69-15a18.62,18.62,0,0,1,6.74,1.22L327,170.13a11.89,11.89,0,0,0-5.17-1c-5.16,0-8.27,3.77-8.24,8.77,0,5.59,3.65,8.74,8.29,8.74a13.47,13.47,0,0,0,5.36-1Z" class="cls-3"></path><path d="M350.11,192l-.49-3h-.18a10.1,10.1,0,0,1-8.15,3.66c-5.68,0-8.9-4.07-8.9-8.45,0-7.18,6.4-10.72,16.53-10.69v-.44c0-1.78-.77-4.55-5.5-4.53a15.21,15.21,0,0,0-7.57,2.09l-1.46-4.91a20.94,20.94,0,0,1,10.36-2.49c9.09,0,11.75,5.64,11.75,11.93v10.08a42.86,42.86,0,0,0,.44,6.78Zm-1-13.66c-4.82-.05-9.24,1-9.24,5a3.57,3.57,0,0,0,3.85,3.86,5.44,5.44,0,0,0,5.21-3.68,5.62,5.62,0,0,0,.18-1.53Z" class="cls-3"></path><path d="M364.71,172.39c0-3.33-.11-6.08-.23-8.55h6.6l.37,4.1h.17a10.17,10.17,0,0,1,8.82-4.73c5.16,0,9.95,3.38,9.95,12V192H382.8V176.14c0-3.88-1.4-6.77-5-6.77a5.48,5.48,0,0,0-5.15,3.89,6.8,6.8,0,0,0-.32,2.24V192h-7.59Z" class="cls-3"></path><path d="M437.4,151V184c0,3,.1,6.13.23,8h-6.74l-.34-4.32h-.13a9.89,9.89,0,0,1-8.95,4.95c-6.67,0-11.93-5.74-11.93-14.41-.05-9.46,5.81-15,12.5-15,3.7,0,6.41,1.47,7.66,3.51h.12V151Zm-7.58,24.58a9,9,0,0,0-.15-1.78,5.87,5.87,0,0,0-5.73-4.76c-4.37,0-6.72,3.91-6.72,8.9s2.47,8.6,6.65,8.6a5.89,5.89,0,0,0,5.74-4.76,8.25,8.25,0,0,0,.21-2Z" class="cls-3"></path><path d="M472.52,177.65c0,10.37-7.23,15-14.45,15-8,0-14.11-5.45-14.11-14.51,0-9.22,6-14.91,14.59-14.91C466.93,163.21,472.52,169.1,472.52,177.65Zm-20.76.29c0,5.22,2.45,9.21,6.54,9.21,3.85,0,6.43-3.83,6.43-9.29,0-4.33-1.82-9.17-6.4-9.17S451.76,173.42,451.76,177.94Z" class="cls-3"></path><path d="M500.33,155.8v8h6.6v5.62h-6.6v11.83c0,3.43.91,5.1,3.57,5.1a11.06,11.06,0,0,0,2.69-.29l.12,5.77a16.67,16.67,0,0,1-5.3.73,8.49,8.49,0,0,1-6.23-2.34c-1.55-1.63-2.28-4.23-2.28-8V169.46H489v-5.62h3.92v-6.27Z" class="cls-3"></path><path d="M539.58,177.65c0,10.37-7.23,15-14.45,15-8,0-14.11-5.45-14.11-14.51,0-9.22,6-14.91,14.59-14.91C534,163.21,539.58,169.1,539.58,177.65Zm-20.77.29c0,5.22,2.46,9.21,6.55,9.21,3.85,0,6.43-3.83,6.43-9.29,0-4.33-1.82-9.17-6.4-9.17S518.81,173.42,518.81,177.94Z" class="cls-3"></path><path d="M572.14,163.84c-.14,1.89-.25,4.25-.25,8.2v15.89c0,5.78-1.16,10-4.17,12.7s-7,3.43-11,3.43a20.74,20.74,0,0,1-9.8-2.19l1.58-5.77a16.77,16.77,0,0,0,8.12,2.13c4.45,0,7.78-2.38,7.78-8.16v-2.22h-.11a9.24,9.24,0,0,1-7.94,4c-6.94,0-11.84-5.77-11.84-13.73,0-9.24,5.92-14.86,12.64-14.86a8.67,8.67,0,0,1,8,4.24h.11l.27-3.61Zm-7.83,11.31a7,7,0,0,0-.21-1.83,5.51,5.51,0,0,0-5.4-4.33c-3.7,0-6.49,3.31-6.49,8.86,0,4.64,2.3,8.32,6.46,8.32a5.55,5.55,0,0,0,5.34-4,9,9,0,0,0,.3-2.44Z" class="cls-3"></path><path d="M585.68,180.14c.21,4.69,4,6.76,8.4,6.76a21.68,21.68,0,0,0,7.69-1.27l1.08,5.2A25.94,25.94,0,0,1,593,192.6c-9.2,0-14.55-5.61-14.55-14.28,0-7.64,4.63-15.11,13.8-15.11S604.4,170.54,604.4,177a15.93,15.93,0,0,1-.26,3.15Zm11.62-5.26c0-2.51-1.06-6.53-5.52-6.53-4.13,0-5.84,3.8-6.13,6.53Z" class="cls-3"></path><path d="M619.43,155.8v8H626v5.62h-6.6v11.83c0,3.43.91,5.1,3.57,5.1a11.06,11.06,0,0,0,2.69-.29l.12,5.77a16.62,16.62,0,0,1-5.3.73,8.49,8.49,0,0,1-6.23-2.34c-1.55-1.63-2.28-4.23-2.28-8V169.46h-3.92v-5.62H612v-6.27Z" class="cls-3"></path><path d="M632.13,151h7.59v16.49h.12a10.06,10.06,0,0,1,8.22-4.31c5,0,9.76,3.4,9.76,12.22V192h-7.59V176.25c0-3.94-1.39-6.87-5.08-6.87a5.45,5.45,0,0,0-5.13,3.71,6,6,0,0,0-.3,2.08V192h-7.59Z" class="cls-3"></path><path d="M671.57,180.14c.2,4.69,4,6.76,8.4,6.76a21.58,21.58,0,0,0,7.68-1.27l1.09,5.2a25.94,25.94,0,0,1-9.87,1.77c-9.2,0-14.56-5.61-14.56-14.28,0-7.64,4.64-15.11,13.81-15.11s12.17,7.33,12.17,13.78a15,15,0,0,1-.27,3.15Zm11.62-5.26c0-2.51-1.06-6.53-5.52-6.53-4.13,0-5.84,3.8-6.13,6.53Z" class="cls-3"></path><path d="M696.7,172.93c0-3.84-.08-6.61-.23-9.09H703l.29,5.28h.2a8.3,8.3,0,0,1,7.62-5.91,7.06,7.06,0,0,1,1.72.15v7.15a10.08,10.08,0,0,0-2.15-.21,6.06,6.06,0,0,0-6.23,5.09,11.29,11.29,0,0,0-.18,2.11V192H696.7Z" class="cls-3"></path><path d="M714.17,187.85a4.61,4.61,0,1,1,4.6,4.78A4.54,4.54,0,0,1,714.17,187.85Z" class="cls-3"></path></g></svg>